<?xml version="1.0" encoding="UTF-8" standalone="no"?>
<!DOCTYPE svg PUBLIC "-//W3C//DTD SVG 1.1//EN"
 "http://www.w3.org/Graphics/SVG/1.1/DTD/svg11.dtd">
<!-- Generated by graphviz version 14.1.5 (0)
 -->
<!-- Title: PartyLifecycle Pages: 1 -->
<svg width="1549pt" height="1369pt"
 viewBox="0.00 0.00 1549.00 1369.00" xmlns="http://www.w3.org/2000/svg" xmlns:xlink="http://www.w3.org/1999/xlink">
<g id="graph0" class="graph" transform="scale(1 1) rotate(0) translate(4 1365)">
<title>PartyLifecycle</title>
<polygon fill="white" stroke="none" points="-4,4 -4,-1365 1545,-1365 1545,4 -4,4"/>
<g id="clust1" class="cluster">
<title>cluster_legend</title>
<polygon fill="none" stroke="#cccccc" stroke-dasharray="5,2" points="1127,-503.75 1127,-1353 1337,-1353 1337,-503.75 1127,-503.75"/>
<text xml:space="preserve" text-anchor="middle" x="1232" y="-1337.6" font-family="Helvetica,sans-Serif" font-size="12.00">Legend</text>
</g>
<g id="clust2" class="cluster">
<title>cluster_bugs</title>
<polygon fill="none" stroke="#f8cecc" stroke-dasharray="5,2" points="1345,-975.5 1345,-1353 1533,-1353 1533,-975.5 1345,-975.5"/>
<text xml:space="preserve" text-anchor="middle" x="1439" y="-1337.6" font-family="Helvetica,sans-Serif" font-size="12.00" fill="#b85450">Bugs on HEAD (8 confirmed)</text>
</g>
<!-- IDLE -->
<g id="node1" class="node">
<title>IDLE</title>
<path fill="#e8e8e8" stroke="#666666" stroke-width="1.5" d="M995.5,-1329C995.5,-1329 934.5,-1329 934.5,-1329 928.5,-1329 922.5,-1323 922.5,-1317 922.5,-1317 922.5,-1292.5 922.5,-1292.5 922.5,-1286.5 928.5,-1280.5 934.5,-1280.5 934.5,-1280.5 995.5,-1280.5 995.5,-1280.5 1001.5,-1280.5 1007.5,-1286.5 1007.5,-1292.5 1007.5,-1292.5 1007.5,-1317 1007.5,-1317 1007.5,-1323 1001.5,-1329 995.5,-1329"/>
<text xml:space="preserve" text-anchor="middle" x="965" y="-1314.55" font-family="Helvetica,sans-Serif" font-size="11.00">IDLE</text>
<text xml:space="preserve" text-anchor="middle" x="965" y="-1301.05" font-family="Helvetica,sans-Serif" font-size="11.00">─────────</text>
<text xml:space="preserve" text-anchor="middle" x="965" y="-1287.55" font-family="Helvetica,sans-Serif" font-size="11.00">not in any flow</text>
</g>
<!-- PARTY_FORMING -->
<g id="node2" class="node">
<title>PARTY_FORMING</title>
<path fill="#dae8fc" stroke="#6c8ebf" stroke-width="1.5" d="M1009.75,-1198C1009.75,-1198 920.25,-1198 920.25,-1198 914.25,-1198 908.25,-1192 908.25,-1186 908.25,-1186 908.25,-1148 908.25,-1148 908.25,-1142 914.25,-1136 920.25,-1136 920.25,-1136 1009.75,-1136 1009.75,-1136 1015.75,-1136 1021.75,-1142 1021.75,-1148 1021.75,-1148 1021.75,-1186 1021.75,-1186 1021.75,-1192 1015.75,-1198 1009.75,-1198"/>
<text xml:space="preserve" text-anchor="middle" x="965" y="-1183.55" font-family="Helvetica,sans-Serif" font-size="11.00">PARTY_FORMING</text>
<text xml:space="preserve" text-anchor="middle" x="965" y="-1170.05" font-family="Helvetica,sans-Serif" font-size="11.00">─────────</text>
<text xml:space="preserve" text-anchor="middle" x="965" y="-1156.55" font-family="Helvetica,sans-Serif" font-size="11.00">joined group</text>
<text xml:space="preserve" text-anchor="middle" x="965" y="-1143.05" font-family="Helvetica,sans-Serif" font-size="11.00">waiting for members</text>
</g>
<!-- IDLE&#45;&gt;PARTY_FORMING -->
<g id="edge1" class="edge">
<title>IDLE&#45;&gt;PARTY_FORMING</title>
<path fill="none" stroke="#2d7600" stroke-width="2.5" d="M965,-1279.79C965,-1261.1 965,-1234.61 965,-1212.11"/>
<polygon fill="#2d7600" stroke="#2d7600" stroke-width="2.5" points="968.5,-1212.16 965,-1202.16 961.5,-1212.16 968.5,-1212.16"/>
<text xml:space="preserve" text-anchor="middle" x="996.88" y="-1235.95" font-family="Helvetica,sans-Serif" font-size="9.00" fill="#2d7600">JoinPartyGroup</text>
</g>
<!-- PARTY_READY -->
<g id="node3" class="node">
<title>PARTY_READY</title>
<path fill="#d5e8d4" stroke="#82b366" stroke-width="1.5" d="M812.75,-1032.5C812.75,-1032.5 723.25,-1032.5 723.25,-1032.5 717.25,-1032.5 711.25,-1026.5 711.25,-1020.5 711.25,-1020.5 711.25,-982.5 711.25,-982.5 711.25,-976.5 717.25,-970.5 723.25,-970.5 723.25,-970.5 812.75,-970.5 812.75,-970.5 818.75,-970.5 824.75,-976.5 824.75,-982.5 824.75,-982.5 824.75,-1020.5 824.75,-1020.5 824.75,-1026.5 818.75,-1032.5 812.75,-1032.5"/>
<text xml:space="preserve" text-anchor="middle" x="768" y="-1018.05" font-family="Helvetica,sans-Serif" font-size="11.00">PARTY_READY</text>
<text xml:space="preserve" text-anchor="middle" x="768" y="-1004.55" font-family="Helvetica,sans-Serif" font-size="11.00">─────────</text>
<text xml:space="preserve" text-anchor="middle" x="768" y="-991.05" font-family="Helvetica,sans-Serif" font-size="11.00">all members present</text>
<text xml:space="preserve" text-anchor="middle" x="768" y="-977.55" font-family="Helvetica,sans-Serif" font-size="11.00">ready to queue</text>
</g>
<!-- PARTY_FORMING&#45;&gt;PARTY_READY -->
<g id="edge2" class="edge">
<title>PARTY_FORMING&#45;&gt;PARTY_READY</title>
<path fill="none" stroke="#2d7600" stroke-width="2.5" d="M928.41,-1135.63C896.44,-1109.1 849.85,-1070.43 815.1,-1041.59"/>
<polygon fill="#2d7600" stroke="#2d7600" stroke-width="2.5" points="817.57,-1039.09 807.64,-1035.4 813.1,-1044.48 817.57,-1039.09"/>
<text xml:space="preserve" text-anchor="middle" x="922.39" y="-1091.45" font-family="Helvetica,sans-Serif" font-size="9.00" fill="#2d7600">AllMembersJoined</text>
<text xml:space="preserve" text-anchor="middle" x="922.39" y="-1080.95" font-family="Helvetica,sans-Serif" font-size="9.00" fill="#2d7600">(or grace period</text>
<text xml:space="preserve" text-anchor="middle" x="922.39" y="-1070.45" font-family="Helvetica,sans-Serif" font-size="9.00" fill="#2d7600">expires w/ partial)</text>
</g>
<!-- ABANDONED -->
<g id="node13" class="node">
<title>ABANDONED</title>
<path fill="#f8cecc" stroke="#b85450" stroke-width="3" d="M927.75,-69.5C927.75,-69.5 850.25,-69.5 850.25,-69.5 844.25,-69.5 838.25,-63.5 838.25,-57.5 838.25,-57.5 838.25,-19.5 838.25,-19.5 838.25,-13.5 844.25,-7.5 850.25,-7.5 850.25,-7.5 927.75,-7.5 927.75,-7.5 933.75,-7.5 939.75,-13.5 939.75,-19.5 939.75,-19.5 939.75,-57.5 939.75,-57.5 939.75,-63.5 933.75,-69.5 927.75,-69.5"/>
<text xml:space="preserve" text-anchor="middle" x="889" y="-55.05" font-family="Helvetica,sans-Serif" font-size="11.00">ABANDONED</text>
<text xml:space="preserve" text-anchor="middle" x="889" y="-41.55" font-family="Helvetica,sans-Serif" font-size="11.00">═════════</text>
<text xml:space="preserve" text-anchor="middle" x="889" y="-28.05" font-family="Helvetica,sans-Serif" font-size="11.00">party dissolved</text>
<text xml:space="preserve" text-anchor="middle" x="889" y="-14.55" font-family="Helvetica,sans-Serif" font-size="11.00">before completion</text>
</g>
<!-- PARTY_FORMING&#45;&gt;ABANDONED -->
<g id="edge15" class="edge">
<title>PARTY_FORMING&#45;&gt;ABANDONED</title>
<path fill="none" stroke="#999999" stroke-width="1.2" stroke-dasharray="5,2" d="M989.05,-1135.4C1011.31,-1103.93 1041,-1052.58 1041,-1002.5 1041,-1002.5 1041,-1002.5 1041,-200 1041,-144.64 992.73,-100.7 950.59,-72.9"/>
<polygon fill="#999999" stroke="#999999" stroke-width="1.2" points="952.73,-70.11 942.42,-67.67 948.96,-76 952.73,-70.11"/>
<text xml:space="preserve" text-anchor="middle" x="1080" y="-615.95" font-family="Helvetica,sans-Serif" font-size="9.00" fill="#999999">NoMembersJoined</text>
</g>
<!-- QUEUING -->
<g id="node4" class="node">
<title>QUEUING</title>
<path fill="#fff2cc" stroke="#d6b656" stroke-width="1.5" d="M192.88,-877.5C192.88,-877.5 119.12,-877.5 119.12,-877.5 113.12,-877.5 107.12,-871.5 107.12,-865.5 107.12,-865.5 107.12,-827.5 107.12,-827.5 107.12,-821.5 113.12,-815.5 119.12,-815.5 119.12,-815.5 192.88,-815.5 192.88,-815.5 198.88,-815.5 204.88,-821.5 204.88,-827.5 204.88,-827.5 204.88,-865.5 204.88,-865.5 204.88,-871.5 198.88,-877.5 192.88,-877.5"/>
<text xml:space="preserve" text-anchor="middle" x="156" y="-863.05" font-family="Helvetica,sans-Serif" font-size="11.00">QUEUING</text>
<text xml:space="preserve" text-anchor="middle" x="156" y="-849.55" font-family="Helvetica,sans-Serif" font-size="11.00">─────────</text>
<text xml:space="preserve" text-anchor="middle" x="156" y="-836.05" font-family="Helvetica,sans-Serif" font-size="11.00">ticket submitted</text>
<text xml:space="preserve" text-anchor="middle" x="156" y="-822.55" font-family="Helvetica,sans-Serif" font-size="11.00">waiting for match</text>
</g>
<!-- PARTY_READY&#45;&gt;QUEUING -->
<g id="edge3" class="edge">
<title>PARTY_READY&#45;&gt;QUEUING</title>
<path fill="none" stroke="#2d7600" stroke-width="2.5" d="M710.7,-986.17C595.68,-957.42 337.53,-892.88 218.41,-863.1"/>
<polygon fill="#2d7600" stroke="#2d7600" stroke-width="2.5" points="219.49,-859.76 208.94,-860.73 217.79,-866.56 219.49,-859.76"/>
<text xml:space="preserve" text-anchor="middle" x="531.27" y="-925.95" font-family="Helvetica,sans-Serif" font-size="9.00" fill="#2d7600">TicketSubmitted</text>
<text xml:space="preserve" text-anchor="middle" x="531.27" y="-915.45" font-family="Helvetica,sans-Serif" font-size="9.00" fill="#2d7600">(leader path)</text>
</g>
<!-- FOLLOWING -->
<g id="node7" class="node">
<title>FOLLOWING</title>
<path fill="#e1d5e7" stroke="#9673a6" stroke-width="1.5" d="M610.88,-733C610.88,-733 537.12,-733 537.12,-733 531.12,-733 525.12,-727 525.12,-721 525.12,-721 525.12,-683 525.12,-683 525.12,-677 531.12,-671 537.12,-671 537.12,-671 610.88,-671 610.88,-671 616.88,-671 622.88,-677 622.88,-683 622.88,-683 622.88,-721 622.88,-721 622.88,-727 616.88,-733 610.88,-733"/>
<text xml:space="preserve" text-anchor="middle" x="574" y="-718.55" font-family="Helvetica,sans-Serif" font-size="11.00">FOLLOWING</text>
<text xml:space="preserve" text-anchor="middle" x="574" y="-705.05" font-family="Helvetica,sans-Serif" font-size="11.00">─────────</text>
<text xml:space="preserve" text-anchor="middle" x="574" y="-691.55" font-family="Helvetica,sans-Serif" font-size="11.00">attempting to join</text>
<text xml:space="preserve" text-anchor="middle" x="574" y="-678.05" font-family="Helvetica,sans-Serif" font-size="11.00">leader&#39;s match</text>
</g>
<!-- PARTY_READY&#45;&gt;FOLLOWING -->
<g id="edge7" class="edge">
<title>PARTY_READY&#45;&gt;FOLLOWING</title>
<path fill="none" stroke="#9673a6" stroke-width="2" d="M747.97,-969.78C712.88,-915.98 640.29,-804.66 600.88,-744.22"/>
<polygon fill="#9673a6" stroke="#9673a6" stroke-width="2" points="603.97,-742.55 595.58,-736.09 598.11,-746.37 603.97,-742.55"/>
<text xml:space="preserve" text-anchor="middle" x="716.35" y="-848.45" font-family="Helvetica,sans-Serif" font-size="9.00" fill="#9673a6">FollowLeader</text>
<text xml:space="preserve" text-anchor="middle" x="716.35" y="-837.95" font-family="Helvetica,sans-Serif" font-size="9.00" fill="#9673a6">(follower path)</text>
</g>
<!-- PARTY_READY&#45;&gt;ABANDONED -->
<g id="edge16" class="edge">
<title>PARTY_READY&#45;&gt;ABANDONED</title>
<path fill="none" stroke="#999999" stroke-width="1.2" stroke-dasharray="5,2" d="M812.71,-969.93C847.18,-942.39 889,-898.47 889,-847.5 889,-847.5 889,-847.5 889,-200 889,-160.22 889,-114.89 889,-82.58"/>
<polygon fill="#999999" stroke="#999999" stroke-width="1.2" points="892.5,-82.69 889,-72.69 885.5,-82.69 892.5,-82.69"/>
<text xml:space="preserve" text-anchor="middle" x="920.88" y="-526.45" font-family="Helvetica,sans-Serif" font-size="9.00" fill="#999999">AllMembersLeft</text>
</g>
<!-- MATCHED -->
<g id="node5" class="node">
<title>MATCHED</title>
<path fill="#fff2cc" stroke="#d6b656" stroke-width="1.5" d="M198.12,-733C198.12,-733 113.88,-733 113.88,-733 107.88,-733 101.88,-727 101.88,-721 101.88,-721 101.88,-683 101.88,-683 101.88,-677 107.88,-671 113.88,-671 113.88,-671 198.12,-671 198.12,-671 204.12,-671 210.12,-677 210.12,-683 210.12,-683 210.12,-721 210.12,-721 210.12,-727 204.12,-733 198.12,-733"/>
<text xml:space="preserve" text-anchor="middle" x="156" y="-718.55" font-family="Helvetica,sans-Serif" font-size="11.00">MATCHED</text>
<text xml:space="preserve" text-anchor="middle" x="156" y="-705.05" font-family="Helvetica,sans-Serif" font-size="11.00">─────────</text>
<text xml:space="preserve" text-anchor="middle" x="156" y="-691.55" font-family="Helvetica,sans-Serif" font-size="11.00">match found</text>
<text xml:space="preserve" text-anchor="middle" x="156" y="-678.05" font-family="Helvetica,sans-Serif" font-size="11.00">awaiting placement</text>
</g>
<!-- QUEUING&#45;&gt;MATCHED -->
<g id="edge4" class="edge">
<title>QUEUING&#45;&gt;MATCHED</title>
<path fill="none" stroke="#2d7600" stroke-width="2.5" d="M156,-814.93C156,-795.21 156,-769.23 156,-747.27"/>
<polygon fill="#2d7600" stroke="#2d7600" stroke-width="2.5" points="159.5,-747.3 156,-737.3 152.5,-747.3 159.5,-747.3"/>
<text xml:space="preserve" text-anchor="middle" x="181.5" y="-770.95" font-family="Helvetica,sans-Serif" font-size="9.00" fill="#2d7600">MatchFound</text>
</g>
<!-- JOINING -->
<g id="node6" class="node">
<title>JOINING</title>
<path fill="#fff2cc" stroke="#d6b656" stroke-width="1.5" d="M196.62,-560.75C196.62,-560.75 115.38,-560.75 115.38,-560.75 109.38,-560.75 103.38,-554.75 103.38,-548.75 103.38,-548.75 103.38,-510.75 103.38,-510.75 103.38,-504.75 109.38,-498.75 115.38,-498.75 115.38,-498.75 196.62,-498.75 196.62,-498.75 202.62,-498.75 208.62,-504.75 208.62,-510.75 208.62,-510.75 208.62,-548.75 208.62,-548.75 208.62,-554.75 202.62,-560.75 196.62,-560.75"/>
<text xml:space="preserve" text-anchor="middle" x="156" y="-546.3" font-family="Helvetica,sans-Serif" font-size="11.00">JOINING</text>
<text xml:space="preserve" text-anchor="middle" x="156" y="-532.8" font-family="Helvetica,sans-Serif" font-size="11.00">─────────</text>
<text xml:space="preserve" text-anchor="middle" x="156" y="-519.3" font-family="Helvetica,sans-Serif" font-size="11.00">LobbyJoinEntrants</text>
<text xml:space="preserve" text-anchor="middle" x="156" y="-505.8" font-family="Helvetica,sans-Serif" font-size="11.00">in progress</text>
</g>
<!-- MATCHED&#45;&gt;JOINING -->
<g id="edge5" class="edge">
<title>MATCHED&#45;&gt;JOINING</title>
<path fill="none" stroke="#2d7600" stroke-width="2.5" d="M156,-670.56C156,-643.98 156,-605.05 156,-575.01"/>
<polygon fill="#2d7600" stroke="#2d7600" stroke-width="2.5" points="159.5,-575.28 156,-565.28 152.5,-575.28 159.5,-575.28"/>
<text xml:space="preserve" text-anchor="middle" x="179.25" y="-615.95" font-family="Helvetica,sans-Serif" font-size="9.00" fill="#2d7600">JoinStarted</text>
</g>
<!-- IN_MATCH -->
<g id="node11" class="node">
<title>IN_MATCH</title>
<path fill="#d5e8d4" stroke="#2d7600" stroke-width="3" d="M627.75,-399C627.75,-399 544.25,-399 544.25,-399 538.25,-399 532.25,-393 532.25,-387 532.25,-387 532.25,-347.5 532.25,-347.5 532.25,-341.5 538.25,-335.5 544.25,-335.5 544.25,-335.5 627.75,-335.5 627.75,-335.5 633.75,-335.5 639.75,-341.5 639.75,-347.5 639.75,-347.5 639.75,-387 639.75,-387 639.75,-393 633.75,-399 627.75,-399"/>
<text xml:space="preserve" text-anchor="middle" x="586" y="-384.55" font-family="Helvetica,sans-Serif" font-size="11.00">IN_MATCH</text>
<text xml:space="preserve" text-anchor="middle" x="586" y="-371.05" font-family="Helvetica,sans-Serif" font-size="11.00">═════════</text>
<text xml:space="preserve" text-anchor="middle" x="586" y="-357.55" font-family="Helvetica,sans-Serif" font-size="11.00">placed successfully</text>
<text xml:space="preserve" text-anchor="middle" x="586" y="-344.05" font-family="Helvetica,sans-Serif" font-size="11.00">✓ CONVERGED</text>
</g>
<!-- JOINING&#45;&gt;IN_MATCH -->
<g id="edge6" class="edge">
<title>JOINING&#45;&gt;IN_MATCH</title>
<path fill="none" stroke="#2d7600" stroke-width="2.5" d="M209.16,-508.91C287.17,-479.79 432.65,-425.49 518.24,-393.54"/>
<polygon fill="#2d7600" stroke="#2d7600" stroke-width="2.5" points="519.24,-396.91 527.38,-390.13 516.79,-390.35 519.24,-396.91"/>
<text xml:space="preserve" text-anchor="middle" x="428.62" y="-442.2" font-family="Helvetica,sans-Serif" font-size="9.00" fill="#2d7600">JoinSucceeded</text>
</g>
<!-- RELEASED -->
<g id="node12" class="node">
<title>RELEASED</title>
<path fill="#f8cecc" stroke="#b85450" stroke-width="3" d="M302.88,-77C302.88,-77 229.12,-77 229.12,-77 223.12,-77 217.12,-71 217.12,-65 217.12,-65 217.12,-12 217.12,-12 217.12,-6 223.12,0 229.12,0 229.12,0 302.88,0 302.88,0 308.88,0 314.88,-6 314.88,-12 314.88,-12 314.88,-65 314.88,-65 314.88,-71 308.88,-77 302.88,-77"/>
<text xml:space="preserve" text-anchor="middle" x="266" y="-62.55" font-family="Helvetica,sans-Serif" font-size="11.00">RELEASED</text>
<text xml:space="preserve" text-anchor="middle" x="266" y="-49.05" font-family="Helvetica,sans-Serif" font-size="11.00">═════════</text>
<text xml:space="preserve" text-anchor="middle" x="266" y="-35.55" font-family="Helvetica,sans-Serif" font-size="11.00">follower released</text>
<text xml:space="preserve" text-anchor="middle" x="266" y="-22.05" font-family="Helvetica,sans-Serif" font-size="11.00">re&#45;queuing solo</text>
<text xml:space="preserve" text-anchor="middle" x="266" y="-8.55" font-family="Helvetica,sans-Serif" font-size="11.00">✗ SPLIT</text>
</g>
<!-- JOINING&#45;&gt;RELEASED -->
<g id="edge13" class="edge">
<title>JOINING&#45;&gt;RELEASED</title>
<path fill="none" stroke="#b85450" stroke-width="2.5" d="M145.11,-498.03C129.26,-448.64 104.04,-348.92 126.75,-268 145.73,-200.38 190.86,-132.93 224.63,-89.04"/>
<polygon fill="#b85450" stroke="#b85450" stroke-width="2.5" points="227.22,-91.42 230.62,-81.38 221.7,-87.1 227.22,-91.42"/>
<text xml:space="preserve" text-anchor="middle" x="174.38" y="-285.7" font-family="Helvetica,sans-Serif" font-size="9.00" fill="#b85450">JoinFailed_Full</text>
<text xml:space="preserve" text-anchor="middle" x="174.38" y="-275.2" font-family="Helvetica,sans-Serif" font-size="9.00" fill="#b85450">── 238/day in prod ──</text>
</g>
<!-- FOLLOW_POLLING -->
<g id="node8" class="node">
<title>FOLLOW_POLLING</title>
<path fill="#e1d5e7" stroke="#9673a6" stroke-width="1.5" d="M513.5,-567.5C513.5,-567.5 410.5,-567.5 410.5,-567.5 404.5,-567.5 398.5,-561.5 398.5,-555.5 398.5,-555.5 398.5,-504 398.5,-504 398.5,-498 404.5,-492 410.5,-492 410.5,-492 513.5,-492 513.5,-492 519.5,-492 525.5,-498 525.5,-504 525.5,-504 525.5,-555.5 525.5,-555.5 525.5,-561.5 519.5,-567.5 513.5,-567.5"/>
<text xml:space="preserve" text-anchor="middle" x="462" y="-553.05" font-family="Helvetica,sans-Serif" font-size="11.00">FOLLOW_POLLING</text>
<text xml:space="preserve" text-anchor="middle" x="462" y="-539.55" font-family="Helvetica,sans-Serif" font-size="11.00">─────────</text>
<text xml:space="preserve" text-anchor="middle" x="462" y="-526.05" font-family="Helvetica,sans-Serif" font-size="11.00">retry loop</text>
<text xml:space="preserve" text-anchor="middle" x="462" y="-512.55" font-family="Helvetica,sans-Serif" font-size="11.00">(~6s budget on HEAD)</text>
<text xml:space="preserve" text-anchor="middle" x="462" y="-499.05" font-family="Helvetica,sans-Serif" font-size="11.00">(should be ~18s)</text>
</g>
<!-- FOLLOWING&#45;&gt;FOLLOW_POLLING -->
<g id="edge9" class="edge">
<title>FOLLOWING&#45;&gt;FOLLOW_POLLING</title>
<path fill="none" stroke="#d6b656" stroke-width="1.2" d="M553.98,-670.56C537.02,-644.78 512.42,-607.4 492.94,-577.77"/>
<polygon fill="#d6b656" stroke="#d6b656" stroke-width="1.2" points="495.96,-576 487.54,-569.57 490.11,-579.85 495.96,-576"/>
<text xml:space="preserve" text-anchor="middle" x="555.41" y="-626.45" font-family="Helvetica,sans-Serif" font-size="9.00" fill="#d6b656">JoinFailed</text>
<text xml:space="preserve" text-anchor="middle" x="555.41" y="-615.95" font-family="Helvetica,sans-Serif" font-size="9.00" fill="#d6b656">(lobby full,</text>
<text xml:space="preserve" text-anchor="middle" x="555.41" y="-605.45" font-family="Helvetica,sans-Serif" font-size="9.00" fill="#d6b656">non&#45;joinable)</text>
</g>
<!-- FOLLOWING&#45;&gt;IN_MATCH -->
<g id="edge8" class="edge">
<title>FOLLOWING&#45;&gt;IN_MATCH</title>
<path fill="none" stroke="#2d7600" stroke-width="2" d="M586.67,-670.27C590.66,-659.32 594.63,-646.78 597,-635 614.54,-547.72 622.11,-522.9 608,-435 606.82,-427.68 604.97,-420.08 602.82,-412.74"/>
<polygon fill="#2d7600" stroke="#2d7600" stroke-width="2" points="606.16,-411.67 599.78,-403.21 599.49,-413.8 606.16,-411.67"/>
<text xml:space="preserve" text-anchor="middle" x="647.23" y="-531.7" font-family="Helvetica,sans-Serif" font-size="9.00" fill="#2d7600">JoinSucceeded</text>
<text xml:space="preserve" text-anchor="middle" x="647.23" y="-521.2" font-family="Helvetica,sans-Serif" font-size="9.00" fill="#2d7600">(immediate)</text>
</g>
<!-- FOLLOWING&#45;&gt;RELEASED -->
<g id="edge12" class="edge">
<title>FOLLOWING&#45;&gt;RELEASED</title>
<path fill="none" stroke="#b85450" stroke-width="2" d="M524.47,-678.87C479.09,-656.44 412.67,-617.89 370,-567.5 252.16,-428.32 253.56,-194.42 260.87,-91.16"/>
<polygon fill="#b85450" stroke="#b85450" stroke-width="2" points="264.35,-91.61 261.62,-81.37 257.37,-91.07 264.35,-91.61"/>
<text xml:space="preserve" text-anchor="middle" x="330.64" y="-374.45" font-family="Helvetica,sans-Serif" font-size="9.00" fill="#b85450">NonJoinableMode</text>
<text xml:space="preserve" text-anchor="middle" x="330.64" y="-363.95" font-family="Helvetica,sans-Serif" font-size="9.00" fill="#b85450">(private match)</text>
<text xml:space="preserve" text-anchor="middle" x="330.64" y="-353.45" font-family="Helvetica,sans-Serif" font-size="9.00" fill="#b85450">── 92/day in prod ──</text>
</g>
<!-- FOLLOW_POLLING&#45;&gt;IN_MATCH -->
<g id="edge10" class="edge">
<title>FOLLOW_POLLING&#45;&gt;IN_MATCH</title>
<path fill="none" stroke="#2d7600" stroke-width="1.2" d="M488.08,-491.32C500.42,-473.97 515.54,-453.2 529.75,-435 536.33,-426.58 543.55,-417.73 550.56,-409.34"/>
<polygon fill="#2d7600" stroke="#2d7600" stroke-width="1.2" points="553.11,-411.74 556.87,-401.83 547.76,-407.23 553.11,-411.74"/>
<text xml:space="preserve" text-anchor="middle" x="563.88" y="-442.2" font-family="Helvetica,sans-Serif" font-size="9.00" fill="#2d7600">RetrySucceeded</text>
</g>
<!-- FOLLOW_POLLING&#45;&gt;RELEASED -->
<g id="edge11" class="edge">
<title>FOLLOW_POLLING&#45;&gt;RELEASED</title>
<path fill="none" stroke="#b85450" stroke-width="2.5" d="M450.95,-491.37C428.51,-417.38 374.26,-247.75 310,-113 306.43,-105.51 302.33,-97.8 298.09,-90.32"/>
<polygon fill="#b85450" stroke="#b85450" stroke-width="2.5" points="301.12,-88.56 293.06,-81.68 295.07,-92.09 301.12,-88.56"/>
<text xml:space="preserve" text-anchor="middle" x="438.27" y="-290.95" font-family="Helvetica,sans-Serif" font-size="9.00" fill="#b85450">BudgetExhausted</text>
<text xml:space="preserve" text-anchor="middle" x="438.27" y="-280.45" font-family="Helvetica,sans-Serif" font-size="9.00" fill="#b85450">(maxNonJoinableCycles)</text>
<text xml:space="preserve" text-anchor="middle" x="438.27" y="-269.95" font-family="Helvetica,sans-Serif" font-size="9.00" fill="#b85450">── 64/day in prod ──</text>
</g>
<!-- CRASHED -->
<g id="node9" class="node">
<title>CRASHED</title>
<path fill="#fff2cc" stroke="#d6b656" stroke-width="1.5" d="M789,-232C789,-232 713,-232 713,-232 707,-232 701,-226 701,-220 701,-220 701,-182 701,-182 701,-176 707,-170 713,-170 713,-170 789,-170 789,-170 795,-170 801,-176 801,-182 801,-182 801,-220 801,-220 801,-226 795,-232 789,-232"/>
<text xml:space="preserve" text-anchor="middle" x="751" y="-217.55" font-family="Helvetica,sans-Serif" font-size="11.00">CRASHED</text>
<text xml:space="preserve" text-anchor="middle" x="751" y="-204.05" font-family="Helvetica,sans-Serif" font-size="11.00">─────────</text>
<text xml:space="preserve" text-anchor="middle" x="751" y="-190.55" font-family="Helvetica,sans-Serif" font-size="11.00">disconnected</text>
<text xml:space="preserve" text-anchor="middle" x="751" y="-177.05" font-family="Helvetica,sans-Serif" font-size="11.00">reservation active</text>
</g>
<!-- RECONNECTING -->
<g id="node10" class="node">
<title>RECONNECTING</title>
<path fill="#fff2cc" stroke="#d6b656" stroke-width="1.5" d="M664.38,-62.75C664.38,-62.75 581.62,-62.75 581.62,-62.75 575.62,-62.75 569.62,-56.75 569.62,-50.75 569.62,-50.75 569.62,-26.25 569.62,-26.25 569.62,-20.25 575.62,-14.25 581.62,-14.25 581.62,-14.25 664.38,-14.25 664.38,-14.25 670.38,-14.25 676.38,-20.25 676.38,-26.25 676.38,-26.25 676.38,-50.75 676.38,-50.75 676.38,-56.75 670.38,-62.75 664.38,-62.75"/>
<text xml:space="preserve" text-anchor="middle" x="623" y="-48.3" font-family="Helvetica,sans-Serif" font-size="11.00">RECONNECTING</text>
<text xml:space="preserve" text-anchor="middle" x="623" y="-34.8" font-family="Helvetica,sans-Serif" font-size="11.00">─────────</text>
<text xml:space="preserve" text-anchor="middle" x="623" y="-21.3" font-family="Helvetica,sans-Serif" font-size="11.00">restoring state</text>
</g>
<!-- CRASHED&#45;&gt;RECONNECTING -->
<g id="edge18" class="edge">
<title>CRASHED&#45;&gt;RECONNECTING</title>
<path fill="none" stroke="#d6b656" stroke-width="1.2" d="M705.8,-169.26C692.92,-159.07 679.6,-146.98 669.25,-134 654.94,-116.06 643.54,-92.97 635.63,-74.1"/>
<polygon fill="#d6b656" stroke="#d6b656" stroke-width="1.2" points="638.93,-72.93 631.96,-64.96 632.44,-75.54 638.93,-72.93"/>
<text xml:space="preserve" text-anchor="middle" x="696.62" y="-120.2" font-family="Helvetica,sans-Serif" font-size="9.00" fill="#d6b656">Reconnected</text>
</g>
<!-- CRASHED&#45;&gt;RELEASED -->
<g id="edge20" class="edge">
<title>CRASHED&#45;&gt;RELEASED</title>
<path fill="none" stroke="#b85450" stroke-width="1.2" stroke-dasharray="5,2" d="M700.47,-183.28C610.74,-153.58 423.93,-91.76 327.12,-59.73"/>
<polygon fill="#b85450" stroke="#b85450" stroke-width="1.2" points="328.37,-56.45 317.78,-56.63 326.17,-63.1 328.37,-56.45"/>
<text xml:space="preserve" text-anchor="middle" x="568.29" y="-120.2" font-family="Helvetica,sans-Serif" font-size="9.00" fill="#b85450">PartyDissolved</text>
</g>
<!-- CRASHED&#45;&gt;ABANDONED -->
<g id="edge21" class="edge">
<title>CRASHED&#45;&gt;ABANDONED</title>
<path fill="none" stroke="#999999" stroke-width="1.2" stroke-dasharray="5,2" d="M759.87,-169.26C766.02,-151.56 775.5,-129.6 788.75,-113 799.63,-99.37 813.63,-87.03 827.69,-76.51"/>
<polygon fill="#999999" stroke="#999999" stroke-width="1.2" points="829.37,-79.61 835.44,-70.93 825.28,-73.93 829.37,-79.61"/>
<text xml:space="preserve" text-anchor="middle" x="816.88" y="-125.45" font-family="Helvetica,sans-Serif" font-size="9.00" fill="#999999">NoReconnect</text>
<text xml:space="preserve" text-anchor="middle" x="816.88" y="-114.95" font-family="Helvetica,sans-Serif" font-size="9.00" fill="#999999">(within 60s)</text>
</g>
<!-- RECONNECTING&#45;&gt;IN_MATCH -->
<g id="edge19" class="edge">
<title>RECONNECTING&#45;&gt;IN_MATCH</title>
<path fill="none" stroke="#2d7600" stroke-width="1.2" d="M617.6,-63.41C611.93,-89.48 603.2,-132.49 598.5,-170 591.96,-222.19 588.77,-282.64 587.26,-322.51"/>
<polygon fill="#2d7600" stroke="#2d7600" stroke-width="1.2" points="583.77,-322.25 586.91,-332.37 590.76,-322.5 583.77,-322.25"/>
<text xml:space="preserve" text-anchor="middle" x="635.25" y="-197.7" font-family="Helvetica,sans-Serif" font-size="9.00" fill="#2d7600">RejoinSucceeded</text>
</g>
<!-- IN_MATCH&#45;&gt;CRASHED -->
<g id="edge17" class="edge">
<title>IN_MATCH&#45;&gt;CRASHED</title>
<path fill="none" stroke="#d6b656" stroke-width="1.2" d="M618.21,-334.19C645.09,-307.43 683.51,-269.19 712.11,-240.71"/>
<polygon fill="#d6b656" stroke="#d6b656" stroke-width="1.2" points="714.37,-243.41 718.98,-233.87 709.43,-238.45 714.37,-243.41"/>
<text xml:space="preserve" text-anchor="middle" x="711.4" y="-280.45" font-family="Helvetica,sans-Serif" font-size="9.00" fill="#d6b656">Disconnected</text>
</g>
<!-- RELEASED&#45;&gt;QUEUING -->
<g id="edge14" class="edge">
<title>RELEASED&#45;&gt;QUEUING</title>
<path fill="none" stroke="#b85450" stroke-width="1.2" stroke-dasharray="5,2" d="M215.65,-46.72C138.54,-60.94 0,-100.35 0,-200 0,-703 0,-703 0,-703 0,-757.33 52.23,-796.5 96.24,-819.86"/>
<polygon fill="#b85450" stroke="#b85450" stroke-width="1.2" points="94.53,-822.91 105.02,-824.35 97.71,-816.68 94.53,-822.91"/>
<text xml:space="preserve" text-anchor="middle" x="28.5" y="-447.45" font-family="Helvetica,sans-Serif" font-size="9.00" fill="#b85450">SoloRequeue</text>
<text xml:space="preserve" text-anchor="middle" x="28.5" y="-436.95" font-family="Helvetica,sans-Serif" font-size="9.00" fill="#b85450">(party broken)</text>
</g>
<!-- l1 -->
<g id="node14" class="node">
<title>l1</title>
<path fill="lightgrey" stroke="none" stroke-width="1.5" d="M1255.75,-1322.75C1255.75,-1322.75 1208.25,-1322.75 1208.25,-1322.75 1202.25,-1322.75 1196.25,-1316.75 1196.25,-1310.75 1196.25,-1310.75 1196.25,-1298.75 1196.25,-1298.75 1196.25,-1292.75 1202.25,-1286.75 1208.25,-1286.75 1208.25,-1286.75 1255.75,-1286.75 1255.75,-1286.75 1261.75,-1286.75 1267.75,-1292.75 1267.75,-1298.75 1267.75,-1298.75 1267.75,-1310.75 1267.75,-1310.75 1267.75,-1316.75 1261.75,-1322.75 1255.75,-1322.75"/>
<text xml:space="preserve" text-anchor="middle" x="1232" y="-1301.05" font-family="Helvetica,sans-Serif" font-size="11.00" fill="#2d7600">Happy path</text>
</g>
<!-- l2 -->
<g id="node15" class="node">
<title>l2</title>
<path fill="lightgrey" stroke="none" stroke-width="1.5" d="M1255.75,-1185C1255.75,-1185 1208.25,-1185 1208.25,-1185 1202.25,-1185 1196.25,-1179 1196.25,-1173 1196.25,-1173 1196.25,-1161 1196.25,-1161 1196.25,-1155 1202.25,-1149 1208.25,-1149 1208.25,-1149 1255.75,-1149 1255.75,-1149 1261.75,-1149 1267.75,-1155 1267.75,-1161 1267.75,-1161 1267.75,-1173 1267.75,-1173 1267.75,-1179 1261.75,-1185 1255.75,-1185"/>
<text xml:space="preserve" text-anchor="middle" x="1232" y="-1163.3" font-family="Helvetica,sans-Serif" font-size="11.00" fill="#9673a6">Follow path</text>
</g>
<!-- l1&#45;&gt;l2 -->
<!-- l3 -->
<g id="node16" class="node">
<title>l3</title>
<path fill="lightgrey" stroke="none" stroke-width="1.5" d="M1256.5,-1019.5C1256.5,-1019.5 1207.5,-1019.5 1207.5,-1019.5 1201.5,-1019.5 1195.5,-1013.5 1195.5,-1007.5 1195.5,-1007.5 1195.5,-995.5 1195.5,-995.5 1195.5,-989.5 1201.5,-983.5 1207.5,-983.5 1207.5,-983.5 1256.5,-983.5 1256.5,-983.5 1262.5,-983.5 1268.5,-989.5 1268.5,-995.5 1268.5,-995.5 1268.5,-1007.5 1268.5,-1007.5 1268.5,-1013.5 1262.5,-1019.5 1256.5,-1019.5"/>
<text xml:space="preserve" text-anchor="middle" x="1232" y="-997.8" font-family="Helvetica,sans-Serif" font-size="11.00" fill="#b85450">Failure path</text>
</g>
<!-- l2&#45;&gt;l3 -->
<!-- l4 -->
<g id="node17" class="node">
<title>l4</title>
<path fill="lightgrey" stroke="none" stroke-width="1.5" d="M1262.88,-864.5C1262.88,-864.5 1201.12,-864.5 1201.12,-864.5 1195.12,-864.5 1189.12,-858.5 1189.12,-852.5 1189.12,-852.5 1189.12,-840.5 1189.12,-840.5 1189.12,-834.5 1195.12,-828.5 1201.12,-828.5 1201.12,-828.5 1262.88,-828.5 1262.88,-828.5 1268.88,-828.5 1274.88,-834.5 1274.88,-840.5 1274.88,-840.5 1274.88,-852.5 1274.88,-852.5 1274.88,-858.5 1268.88,-864.5 1262.88,-864.5"/>
<text xml:space="preserve" text-anchor="middle" x="1232" y="-842.8" font-family="Helvetica,sans-Serif" font-size="11.00" fill="#d6b656">Recovery path</text>
</g>
<!-- l3&#45;&gt;l4 -->
<!-- l5 -->
<g id="node18" class="node">
<title>l5</title>
<path fill="lightgrey" stroke="none" stroke-width="1.5" d="M1261.75,-720C1261.75,-720 1202.25,-720 1202.25,-720 1196.25,-720 1190.25,-714 1190.25,-708 1190.25,-708 1190.25,-696 1190.25,-696 1190.25,-690 1196.25,-684 1202.25,-684 1202.25,-684 1261.75,-684 1261.75,-684 1267.75,-684 1273.75,-690 1273.75,-696 1273.75,-696 1273.75,-708 1273.75,-708 1273.75,-714 1267.75,-720 1261.75,-720"/>
<text xml:space="preserve" text-anchor="middle" x="1232" y="-698.3" font-family="Helvetica,sans-Serif" font-size="11.00" fill="#999999">Abandonment</text>
</g>
<!-- l4&#45;&gt;l5 -->
<!-- l6 -->
<g id="node19" class="node">
<title>l6</title>
<path fill="lightgrey" stroke="none" stroke-width="1.5" d="M1316.88,-547.75C1316.88,-547.75 1147.12,-547.75 1147.12,-547.75 1141.12,-547.75 1135.12,-541.75 1135.12,-535.75 1135.12,-535.75 1135.12,-523.75 1135.12,-523.75 1135.12,-517.75 1141.12,-511.75 1147.12,-511.75 1147.12,-511.75 1316.88,-511.75 1316.88,-511.75 1322.88,-511.75 1328.88,-517.75 1328.88,-523.75 1328.88,-523.75 1328.88,-535.75 1328.88,-535.75 1328.88,-541.75 1322.88,-547.75 1316.88,-547.75"/>
<text xml:space="preserve" text-anchor="middle" x="1232" y="-526.05" font-family="Helvetica,sans-Serif" font-size="11.00" fill="#b85450">── N/day ── = production frequency</text>
</g>
<!-- l5&#45;&gt;l6 -->
<!-- b1 -->
<g id="node20" class="node">
<title>b1</title>
<path fill="lightgrey" stroke="none" stroke-width="1.5" d="M1513,-1322.75C1513,-1322.75 1365,-1322.75 1365,-1322.75 1359,-1322.75 1353,-1316.75 1353,-1310.75 1353,-1310.75 1353,-1298.75 1353,-1298.75 1353,-1292.75 1359,-1286.75 1365,-1286.75 1365,-1286.75 1513,-1286.75 1513,-1286.75 1519,-1286.75 1525,-1292.75 1525,-1298.75 1525,-1298.75 1525,-1310.75 1525,-1310.75 1525,-1316.75 1519,-1322.75 1513,-1322.75"/>
<text xml:space="preserve" text-anchor="middle" x="1439" y="-1307.25" font-family="Helvetica,sans-Serif" font-size="10.00" fill="#b85450">BUG #1: maxNonJoinableCycles=1</text>
<text xml:space="preserve" text-anchor="middle" x="1439" y="-1295.25" font-family="Helvetica,sans-Serif" font-size="10.00" fill="#b85450">(should be 3, silently reverted)</text>
</g>
<!-- b2 -->
<g id="node21" class="node">
<title>b2</title>
<path fill="lightgrey" stroke="none" stroke-width="1.5" d="M1510,-1189C1510,-1189 1368,-1189 1368,-1189 1362,-1189 1356,-1183 1356,-1177 1356,-1177 1356,-1157 1356,-1157 1356,-1151 1362,-1145 1368,-1145 1368,-1145 1510,-1145 1510,-1145 1516,-1145 1522,-1151 1522,-1157 1522,-1157 1522,-1177 1522,-1177 1522,-1183 1516,-1189 1510,-1189"/>
<text xml:space="preserve" text-anchor="middle" x="1439" y="-1175.5" font-family="Helvetica,sans-Serif" font-size="10.00" fill="#b85450">BUG #6: isFollowerInLeaderMatch</text>
<text xml:space="preserve" text-anchor="middle" x="1439" y="-1163.5" font-family="Helvetica,sans-Serif" font-size="10.00" fill="#b85450">returns TRUE on error</text>
<text xml:space="preserve" text-anchor="middle" x="1439" y="-1151.5" font-family="Helvetica,sans-Serif" font-size="10.00" fill="#b85450">(false convergence)</text>
</g>
<!-- b1&#45;&gt;b2 -->
<!-- b3 -->
<g id="node22" class="node">
<title>b3</title>
<path fill="lightgrey" stroke="none" stroke-width="1.5" d="M1510,-1019.5C1510,-1019.5 1368,-1019.5 1368,-1019.5 1362,-1019.5 1356,-1013.5 1356,-1007.5 1356,-1007.5 1356,-995.5 1356,-995.5 1356,-989.5 1362,-983.5 1368,-983.5 1368,-983.5 1510,-983.5 1510,-983.5 1516,-983.5 1522,-989.5 1522,-995.5 1522,-995.5 1522,-1007.5 1522,-1007.5 1522,-1013.5 1516,-1019.5 1510,-1019.5"/>
<text xml:space="preserve" text-anchor="middle" x="1439" y="-1004" font-family="Helvetica,sans-Serif" font-size="10.00" fill="#b85450">BUG #8: publicGroupID() removed</text>
<text xml:space="preserve" text-anchor="middle" x="1439" y="-992" font-family="Helvetica,sans-Serif" font-size="10.00" fill="#b85450">(cross&#45;guild matching broken)</text>
</g>
<!-- b2&#45;&gt;b3 -->
</g>
</svg>
